<?xml version="1.0" standalone="no"?>
<!DOCTYPE svg PUBLIC "-//W3C//DTD SVG 20010904//EN"
 "http://www.w3.org/TR/2001/REC-SVG-20010904/DTD/svg10.dtd">
<svg version="1.0" xmlns="http://www.w3.org/2000/svg"
 width="640.000000pt" height="504.000000pt" viewBox="0 0 840.000000 504.000000"
 preserveAspectRatio="xMidYMid meet">
<metadata>
Created by potrace 1.16, written by Peter Selinger 2001-2019
</metadata>
<g transform="translate(0.000000,504.000000) scale(0.100000,-0.100000)"
fill="#000000" stroke="#000000">
<path d="M1510 4710 c0 -11 -4 -20 -10 -20 -5 0 -10 -7 -10 -15 0 -8 -4 -15
-10 -15 -5 0 -10 -7 -10 -15 0 -8 -4 -15 -10 -15 -5 0 -10 -9 -10 -20 0 -11
-4 -20 -8 -20 -5 0 -14 -16 -22 -35 -8 -19 -17 -35 -22 -35 -4 0 -8 -7 -8 -15
0 -9 -5 -21 -10 -28 -19 -23 -120 -189 -120 -198 0 -5 -4 -9 -10 -9 -5 0 -10
-9 -10 -20 0 -11 -4 -20 -9 -20 -5 0 -11 -8 -14 -17 -6 -18 -37 -73 -47 -83
-3 -3 -12 -18 -20 -35 -8 -16 -17 -32 -20 -35 -3 -3 -18 -30 -34 -60 -16 -30
-32 -57 -36 -60 -4 -3 -13 -20 -21 -37 -8 -18 -17 -33 -21 -33 -5 0 -8 -7 -8
-15 0 -8 -4 -15 -10 -15 -5 0 -10 -7 -10 -15 0 -8 -4 -15 -10 -15 -5 0 -10 -9
-10 -20 0 -11 -4 -20 -10 -20 -5 0 -10 -9 -10 -20 0 -11 -4 -20 -9 -20 -5 0
-11 -8 -14 -17 -9 -27 -89 -157 -117 -190 -5 -7 -10 -19 -10 -28 0 -8 -4 -15
-8 -15 -5 0 -14 -16 -22 -35 -8 -19 -17 -35 -22 -35 -4 0 -8 -7 -8 -15 0 -9
-9 -25 -20 -37 -11 -12 -20 -28 -20 -35 0 -7 -4 -13 -10 -13 -5 0 -10 -9 -10
-19 0 -11 -3 -21 -8 -23 -7 -3 -85 -130 -111 -180 -7 -16 -17 -28 -22 -28 -5
0 -9 -9 -9 -20 0 -11 -4 -20 -10 -20 -5 0 -10 -4 -10 -10 0 -6 113 -10 320
-10 l321 0 24 25 c14 13 25 31 25 40 0 8 5 15 10 15 6 0 10 9 10 20 0 11 5 20
10 20 6 0 10 7 10 15 0 8 5 15 10 15 6 0 10 9 10 20 0 11 5 20 10 20 6 0 10 9
10 20 0 11 4 20 9 20 5 0 12 8 16 19 3 10 27 54 53 97 26 44 53 91 61 107 8
15 18 27 23 27 4 0 8 9 8 20 0 11 5 20 10 20 6 0 10 9 10 20 0 11 5 20 10 20
6 0 10 9 10 20 0 11 5 20 10 20 6 0 10 6 10 13 0 8 8 21 18 31 18 15 21 12 65
-66 25 -46 51 -88 56 -95 6 -7 11 -19 11 -28 0 -8 5 -15 10 -15 6 0 10 -9 10
-20 0 -11 5 -20 10 -20 6 0 10 -7 10 -15 0 -8 5 -15 10 -15 6 0 10 -9 10 -20
0 -11 5 -20 10 -20 6 0 10 -7 10 -15 0 -9 5 -21 10 -28 16 -18 76 -121 91
-156 8 -17 17 -31 21 -31 5 0 8 -9 8 -20 0 -11 4 -20 9 -20 5 0 14 -13 21 -30
l12 -30 319 0 c283 0 319 2 319 16 0 15 -18 55 -29 64 -10 8 -42 63 -48 83 -3
9 -9 17 -14 17 -5 0 -9 7 -9 15 0 8 -4 15 -10 15 -5 0 -10 9 -10 20 0 11 -4
20 -10 20 -5 0 -10 9 -10 20 0 11 -4 20 -10 20 -5 0 -10 9 -10 20 0 11 -4 20
-8 20 -5 0 -15 12 -23 28 -26 51 -104 177 -111 180 -5 2 -8 12 -8 23 0 10 -4
19 -10 19 -5 0 -10 9 -10 20 0 11 -4 20 -10 20 -5 0 -10 5 -10 11 0 6 -7 17
-15 25 -12 13 -62 15 -320 13 -169 0 -309 2 -312 5 -6 6 43 106 57 116 4 3 13
20 21 38 8 17 17 32 21 32 5 0 8 9 8 20 0 11 5 20 10 20 6 0 10 9 10 20 0 11
5 20 10 20 6 0 10 8 10 18 0 10 9 24 20 32 11 8 20 22 20 32 0 10 5 18 10 18
6 0 10 9 10 20 0 11 3 20 8 20 4 0 12 10 18 23 6 12 23 43 37 69 27 46 27 48
10 83 -9 19 -20 35 -23 35 -3 0 -12 16 -20 35 -8 19 -17 35 -22 35 -4 0 -8 7
-8 15 0 8 -4 15 -10 15 -5 0 -10 7 -10 15 0 8 -4 15 -10 15 -5 0 -10 9 -10 20
0 11 -4 20 -10 20 -5 0 -10 8 -10 18 0 10 -9 24 -20 32 -11 8 -20 22 -20 32 0
10 -4 18 -10 18 -5 0 -10 4 -10 10 0 5 -16 34 -35 64 -19 30 -35 58 -35 61 0
12 -29 35 -44 35 -9 0 -16 -8 -16 -20z"/>
<path d="M3180 4210 c0 -11 -4 -20 -10 -20 -5 0 -10 -9 -10 -20 0 -11 -4 -20
-10 -20 -5 0 -10 -9 -10 -20 0 -11 -4 -20 -8 -20 -5 0 -14 -16 -22 -35 -8 -19
-17 -35 -22 -35 -4 0 -8 -9 -8 -20 0 -11 -4 -20 -10 -20 -5 0 -10 -9 -10 -20
0 -11 -4 -20 -10 -20 -5 0 -10 -9 -10 -19 0 -11 -3 -21 -7 -23 -5 -1 -21 -31
-38 -65 -16 -35 -33 -63 -37 -63 -5 0 -8 -9 -8 -20 0 -11 -4 -20 -10 -20 -5 0
-10 -9 -10 -20 0 -11 -4 -20 -10 -20 -5 0 -10 -9 -10 -20 0 -11 -4 -20 -10
-20 -5 0 -10 -9 -10 -19 0 -11 -4 -21 -9 -23 -5 -1 -11 -12 -13 -23 -3 -18 3
-20 52 -20 l55 0 35 72 35 72 153 1 152 0 0 -25 c0 -14 5 -25 10 -25 6 0 10
-9 10 -20 0 -11 5 -20 10 -20 6 0 10 -7 10 -16 0 -29 27 -44 79 -44 29 0 51 5
51 10 0 16 -51 114 -61 118 -5 2 -9 12 -9 23 0 10 -4 19 -10 19 -5 0 -10 9
-10 20 0 11 -4 20 -10 20 -5 0 -10 9 -10 20 0 11 -4 20 -10 20 -5 0 -10 9 -10
20 0 11 -4 20 -10 20 -5 0 -10 9 -10 20 0 11 -4 20 -10 20 -5 0 -10 8 -10 18
0 10 -4 22 -9 27 -8 10 -95 168 -116 212 -5 13 -13 23 -17 23 -5 0 -8 9 -8 20
0 11 -4 20 -10 20 -5 0 -10 -9 -10 -20z m55 -272 c22 -46 43 -85 48 -86 4 -2
5 -8 1 -13 -7 -12 -184 -12 -184 1 0 6 5 10 10 10 6 0 10 9 10 20 0 11 5 20
10 20 6 0 10 11 10 25 0 14 5 25 10 25 6 0 10 9 10 20 0 11 5 20 10 20 6 0 10
9 10 20 0 38 16 20 55 -62z"/>
<path d="M4640 4220 c0 -5 -13 -10 -30 -10 -16 0 -30 -4 -30 -10 0 -5 -7 -10
-15 -10 -17 0 -53 -33 -72 -68 -7 -12 -13 -47 -13 -77 0 -52 3 -58 43 -98 23
-23 69 -55 102 -70 153 -72 165 -82 165 -132 0 -52 -50 -95 -111 -95 -39 0
-119 41 -119 61 0 14 -7 19 -30 19 -16 0 -30 -4 -30 -10 0 -5 -9 -10 -20 -10
-23 0 -26 -20 -7 -53 11 -19 23 -32 64 -67 7 -5 19 -10 28 -10 8 0 15 -4 15
-10 0 -6 38 -10 95 -10 52 0 95 4 95 9 0 5 13 11 29 14 16 3 35 12 42 20 33
34 49 58 49 72 0 7 5 17 10 20 6 3 10 31 10 61 0 30 -4 54 -10 54 -5 0 -10 8
-10 18 0 10 -10 24 -21 32 -12 8 -27 20 -33 26 -18 18 -93 54 -111 54 -8 0
-15 5 -15 10 0 6 -9 10 -20 10 -11 0 -20 5 -20 10 0 6 -5 10 -10 10 -6 0 -22
11 -35 25 -32 31 -33 80 -2 106 26 22 111 26 132 7 49 -44 64 -48 85 -23 7 8
19 15 26 15 18 0 18 5 -2 46 -10 21 -24 34 -35 34 -11 0 -19 5 -19 10 0 6 -18
10 -40 10 -22 0 -40 5 -40 10 0 6 -20 10 -45 10 -25 0 -45 -4 -45 -10z"/>
<path d="M6115 4115 c-33 -63 -63 -115 -67 -115 -5 0 -8 -9 -8 -20 0 -11 -4
-20 -10 -20 -5 0 -10 -9 -10 -20 0 -11 -4 -20 -10 -20 -5 0 -10 -9 -10 -20 0
-11 -4 -20 -10 -20 -5 0 -10 -7 -10 -15 0 -8 -4 -15 -10 -15 -5 0 -10 -9 -10
-20 0 -11 -4 -20 -10 -20 -5 0 -10 -9 -10 -19 0 -11 -4 -21 -8 -23 -8 -3 -102
-172 -102 -183 0 -3 29 -5 65 -5 58 0 65 2 65 20 0 11 5 20 10 20 6 0 10 7 10
15 0 8 5 15 10 15 6 0 10 9 10 20 0 11 5 20 10 20 6 0 10 9 10 20 0 19 7 20
153 20 l152 -1 26 -42 c14 -23 32 -57 39 -74 14 -32 17 -33 72 -33 51 0 58 2
58 20 0 11 -4 20 -10 20 -5 0 -10 7 -10 15 0 8 -4 15 -10 15 -5 0 -10 9 -10
20 0 11 -4 20 -10 20 -5 0 -10 9 -10 20 0 11 -4 20 -10 20 -5 0 -10 9 -10 20
0 11 -4 20 -10 20 -5 0 -10 9 -10 19 0 11 -4 21 -9 23 -4 2 -35 53 -67 113
-32 61 -62 112 -66 113 -4 2 -8 12 -8 23 0 10 -4 19 -10 19 -5 0 -10 9 -10 20
0 11 -4 20 -10 20 -5 0 -10 9 -10 20 0 11 -4 20 -10 20 -5 0 -10 7 -10 15 0 8
-4 15 -10 15 -5 0 -10 9 -10 20 0 39 -15 19 -75 -95z m75 -115 c0 -11 5 -20
10 -20 6 0 10 -9 10 -20 0 -11 5 -20 10 -20 6 0 10 -9 10 -20 0 -11 5 -20 10
-20 6 0 10 -9 10 -20 0 -11 5 -20 10 -20 6 0 10 -7 10 -15 0 -12 -17 -15 -89
-15 -50 0 -93 5 -96 10 -3 6 -3 10 2 10 4 0 22 29 38 65 17 36 33 65 38 65 4
0 7 9 7 20 0 11 5 20 10 20 6 0 10 -9 10 -20z"/>
<path d="M6593 3910 l2 -325 58 -3 57 -3 0 211 c0 115 2 210 5 210 3 0 25 -19
49 -42 23 -24 60 -56 80 -72 21 -16 58 -49 83 -73 26 -24 50 -43 55 -43 5 0
20 -10 33 -22 40 -38 78 -71 125 -108 25 -19 50 -39 57 -45 7 -5 19 -16 27
-22 8 -7 18 -13 21 -13 3 0 5 146 5 325 l0 325 -50 0 -50 0 0 -210 c0 -183 -2
-210 -15 -210 -9 0 -26 10 -39 23 -12 12 -44 40 -71 62 -27 22 -63 55 -81 73
-18 17 -38 32 -44 32 -5 0 -10 5 -10 10 0 6 -6 10 -13 10 -7 0 -19 9 -27 20
-8 11 -18 20 -22 20 -7 0 -38 27 -125 108 -26 23 -52 42 -60 42 -7 0 -13 5
-13 10 0 6 -6 10 -14 10 -8 0 -17 6 -19 13 -3 6 -5 -134 -4 -313z"/>
<path d="M3600 4190 c0 -11 5 -20 10 -20 6 0 10 -7 10 -15 0 -8 5 -15 10 -15
6 0 10 -7 10 -15 0 -8 5 -15 10 -15 6 0 10 -7 10 -15 0 -8 4 -15 9 -15 5 0 12
-8 16 -19 5 -16 16 -31 55 -78 5 -7 10 -15 10 -19 0 -3 9 -19 21 -35 11 -16
17 -29 12 -29 -4 0 -14 -12 -20 -27 -11 -24 -25 -43 -73 -100 -5 -7 -15 -24
-22 -38 -6 -14 -15 -25 -20 -25 -4 0 -8 -7 -8 -15 0 -8 -4 -15 -10 -15 -5 0
-10 -7 -10 -15 0 -8 -4 -15 -10 -15 -5 0 -10 -7 -10 -15 0 -8 -4 -15 -10 -15
-5 0 -10 -9 -10 -20 0 -17 7 -20 44 -20 52 0 76 8 76 24 0 9 10 23 58 82 5 5
15 21 22 34 7 13 21 33 31 44 11 11 19 26 19 33 0 7 3 13 6 13 11 0 34 -29 34
-44 0 -9 4 -16 9 -16 5 0 13 -9 16 -20 3 -11 12 -26 18 -32 7 -7 27 -37 46
-65 l33 -53 64 0 c36 0 64 4 64 10 0 6 -4 10 -10 10 -5 0 -10 7 -10 15 0 8 -4
15 -10 15 -5 0 -10 7 -10 15 0 8 -4 15 -10 15 -5 0 -10 7 -10 15 0 8 -4 15 -8
15 -5 0 -14 11 -20 25 -7 14 -17 31 -22 38 -39 46 -50 62 -55 78 -4 11 -11 19
-16 19 -5 0 -9 7 -9 15 0 8 -4 15 -10 15 -20 0 -10 51 15 76 14 14 25 29 25
34 0 5 6 15 13 22 7 7 30 41 52 75 22 35 43 63 48 63 4 0 7 7 7 15 0 8 5 15
10 15 6 0 10 7 10 15 0 12 -13 15 -57 15 l-58 0 -29 -50 c-16 -27 -42 -64 -58
-82 -15 -18 -28 -37 -28 -41 0 -10 -26 -37 -34 -37 -3 0 -6 8 -6 18 0 10 -9
24 -20 32 -11 8 -20 18 -20 22 0 10 -49 87 -67 106 -7 7 -13 18 -13 23 0 5
-25 9 -55 9 -48 0 -55 -2 -55 -20z"/>
<path d="M4250 3895 l0 -315 50 0 50 0 0 315 0 315 -50 0 -50 0 0 -315z"/>
<path d="M5355 4197 c-3 -7 -4 -147 -3 -312 l3 -300 169 -3 c106 -1 173 1 180
8 5 5 16 10 24 10 19 0 82 70 82 91 0 10 5 21 10 24 6 3 10 21 10 40 0 19 -4
37 -10 40 -5 3 -10 15 -10 27 0 25 -55 78 -84 79 -11 0 -15 3 -8 6 6 2 12 11
12 18 0 8 9 17 20 20 11 3 20 13 20 21 0 8 5 14 10 14 6 0 10 28 10 65 0 37
-4 65 -10 65 -5 0 -10 7 -10 15 0 8 -4 15 -10 15 -5 0 -10 6 -10 14 0 7 -15
19 -32 26 -18 6 -41 16 -50 21 -28 15 -308 12 -313 -4z m233 -78 c62 -16 82
-38 82 -89 0 -43 -17 -70 -44 -70 -8 0 -18 -4 -21 -10 -8 -13 -122 -13 -127 0
-1 5 -2 48 0 95 l3 85 30 0 c17 0 51 -5 77 -11z m59 -276 c20 -9 38 -25 41
-35 2 -10 8 -18 13 -18 5 0 9 -13 9 -30 0 -16 -4 -30 -10 -30 -5 0 -10 -6 -10
-14 0 -26 -49 -46 -128 -52 l-79 -6 -7 91 c-4 51 -4 96 -1 101 10 17 134 12
172 -7z"/>
<path d="M7340 3895 l0 -315 60 0 60 0 0 150 c0 83 2 150 5 150 7 0 115 -113
115 -120 0 -3 37 -45 83 -93 l83 -87 67 0 c37 0 67 4 67 10 0 11 -51 68 -167
186 -46 46 -83 86 -83 89 0 3 -11 17 -25 31 l-26 26 141 140 c77 77 140 141
140 144 0 2 -32 4 -70 4 l-70 0 -124 -125 c-69 -69 -127 -125 -130 -125 -3 0
-6 56 -6 125 l0 125 -60 0 -60 0 0 -315z"/>
</g>
</svg>
