<?xml version="1.0" encoding="utf-8"?>
<!-- Generator: Adobe Illustrator 16.0.0, SVG Export Plug-In . SVG Version: 6.00 Build 0)  -->
<svg xmlns="http://www.w3.org/2000/svg" xmlns:xlink="http://www.w3.org/1999/xlink" version="1.1" id="593283873_Outlined_2__grid" x="0px" y="0px" width="32px" height="32px" viewBox="0 0 32 32" style="enable-background:new 0 0 32 32;" xml:space="preserve">
<path d="M28.897,12.688c-0.133-0.413-0.518-0.693-0.952-0.693h-8.435l-2.604-7.849c-0.136-0.41-0.519-0.651-0.95-0.651h-0.002  c-0.433,0-0.815,0.244-0.949,0.655l-2.568,7.845H4.054c-0.434,0-0.819,0.28-0.952,0.693c-0.133,0.414,0.016,0.866,0.369,1.119  l6.789,4.869L7.699,26.54c-0.134,0.411,0.011,0.861,0.36,1.117c0.176,0.128,0.383,0.192,0.59,0.192c0.204,0,0.409-0.063,0.583-0.188  l6.774-4.864l6.774,4.859c0.174,0.125,0.379,0.188,0.583,0.188c0.208,0,0.416-0.064,0.592-0.194  c0.349-0.256,0.493-0.708,0.357-1.119l-2.589-7.839l6.805-4.886C28.882,13.553,29.03,13.101,28.897,12.688z M20.843,18.095  c-0.178,0.127-0.252,0.355-0.184,0.563l2.705,8.188l-7.066-5.068c-0.087-0.063-0.189-0.094-0.291-0.094  c-0.103,0-0.205,0.031-0.292,0.094L8.649,26.85l2.675-8.211c0.068-0.208-0.007-0.435-0.184-0.562l-7.087-5.083h8.747  c0.216,0,0.408-0.14,0.475-0.346l2.68-8.225l2.718,8.227c0.067,0.205,0.259,0.344,0.475,0.344h8.796L20.843,18.095z"/>
</svg>
