<?xml version="1.0" encoding="utf-8"?>
<!-- Generator: Adobe Illustrator 16.0.0, SVG Export Plug-In . SVG Version: 6.00 Build 0)  -->
<!DOCTYPE svg PUBLIC "-//W3C//DTD SVG 1.1//EN" "http://www.w3.org/Graphics/SVG/1.1/DTD/svg11.dtd">
<svg version="1.1" id="Capa_1" xmlns="http://www.w3.org/2000/svg" xmlns:xlink="http://www.w3.org/1999/xlink" x="0px" y="0px"
	 width="32px" height="32px" viewBox="0 0 32 32" style="enable-background:new 0 0 32 32;" xml:space="preserve">
<path d="M3,6v20h26V6H3z M28,25H4V7h24V25z M12.053,21.724C12.138,21.895,12.312,22,12.5,22l0.049-0.002
	c0.206-0.021,0.378-0.166,0.433-0.366L15.882,11H26v-1H15.5c-0.226,0-0.423,0.151-0.482,0.369l-2.656,9.737l-3.415-6.829
	C8.862,13.107,8.689,13,8.5,13H6v1h2.191L12.053,21.724z M23.12,14.17L20.5,17.23l-2.62-3.061l-0.76,0.66L19.84,18l-2.72,3.17
	l0.76,0.66l2.62-3.061l2.62,3.061l0.76-0.66L21.16,18l2.72-3.17L23.12,14.17z"/>
</svg>
